<svg width="80" height="80" viewBox="0 0 80 80" fill="none" xmlns="http://www.w3.org/2000/svg">
<path d="M10 50.0008V56C10 59.7337 10 61.5992 10.7266 63.0253C11.3658 64.2797 12.3849 65.3016 13.6393 65.9408C15.064 66.6667 16.93 66.6667 20.6564 66.6667H70.0006M10 50.0008V16.6667M10 50.0008L22.8447 39.2969L22.8553 39.2884C25.1789 37.352 26.3429 36.382 27.6051 35.988C29.0962 35.5225 30.7024 35.5961 32.1452 36.1947C33.3683 36.7021 34.4408 37.7746 36.5859 39.9196L36.6074 39.9411C38.7857 42.1195 39.8778 43.2115 41.1205 43.7178C42.5912 44.3169 44.2284 44.3685 45.7357 43.8686C47.0136 43.4447 48.1807 42.4252 50.5143 40.3832L69.9999 23.3333" stroke="white" stroke-width="2" stroke-linecap="round" stroke-linejoin="round"/>
</svg>
