<svg width="26" height="26" viewBox="0 0 26 26" fill="none" xmlns="http://www.w3.org/2000/svg">
<path d="M9 17V21C9 23.2091 7.20914 25 5 25C2.79086 25 1 23.2091 1 21C1 18.7909 2.79086 17 5 17H9ZM9 17H17M9 17V9M17 17V21C17 23.2091 18.7909 25 21 25C23.2091 25 25 23.2091 25 21C25 18.7909 23.2091 17 21 17H17ZM17 17V9M17 9H9M17 9V5C17 2.79086 18.7909 1 21 1C23.2091 1 25 2.79086 25 5C25 7.20914 23.2091 9 21 9H17ZM9 9V5C9 2.79086 7.20914 1 5 1C2.79086 1 1 2.79086 1 5C1 7.20914 2.79086 9 5 9H9Z" stroke="white" stroke-width="2" stroke-linecap="round" stroke-linejoin="round"/>
</svg>
