<svg width="32" height="32" viewBox="0 0 32 32" fill="none" xmlns="http://www.w3.org/2000/svg">
<path d="M14.6667 24C14.6667 24.7364 15.2636 25.3333 16 25.3333C16.7364 25.3333 17.3333 24.7364 17.3333 24C17.3333 23.2636 16.7364 22.6667 16 22.6667C15.2636 22.6667 14.6667 23.2636 14.6667 24Z" stroke="white" stroke-width="2" stroke-linecap="round" stroke-linejoin="round"/>
<path d="M14.6667 16C14.6667 16.7364 15.2636 17.3333 16 17.3333C16.7364 17.3333 17.3333 16.7364 17.3333 16C17.3333 15.2636 16.7364 14.6667 16 14.6667C15.2636 14.6667 14.6667 15.2636 14.6667 16Z" stroke="white" stroke-width="2" stroke-linecap="round" stroke-linejoin="round"/>
<path d="M14.6667 7.99999C14.6667 8.73637 15.2636 9.33332 16 9.33332C16.7364 9.33332 17.3333 8.73637 17.3333 7.99999C17.3333 7.26361 16.7364 6.66666 16 6.66666C15.2636 6.66666 14.6667 7.26361 14.6667 7.99999Z" stroke="white" stroke-width="2" stroke-linecap="round" stroke-linejoin="round"/>
</svg>
