<svg width="32" height="32" viewBox="0 0 32 32" fill="none" xmlns="http://www.w3.org/2000/svg">
<path d="M20 7.33333V24.6667C20 25.2862 20 25.596 20.0512 25.8536C20.2617 26.9114 21.088 27.7388 22.1458 27.9492C22.4034 28.0005 22.7132 28.0005 23.3327 28.0005C23.9523 28.0005 24.2632 28.0005 24.5208 27.9492C25.5787 27.7388 26.4055 26.9114 26.6159 25.8536C26.6667 25.5982 26.6667 25.2917 26.6667 24.683V7.31702C26.6667 6.70833 26.6667 6.40116 26.6159 6.14583C26.4055 5.08799 25.5781 4.26166 24.5202 4.05124C24.2626 4 23.9529 4 23.3333 4C22.7138 4 22.4034 4 22.1458 4.05124C21.088 4.26166 20.2617 5.08799 20.0512 6.14583C20 6.40343 20 6.71379 20 7.33333Z" stroke="white" stroke-width="2" stroke-linecap="round" stroke-linejoin="round"/>
<path d="M5.33334 7.33333V24.6667C5.33334 25.2862 5.33334 25.596 5.38458 25.8536C5.59499 26.9114 6.42133 27.7388 7.47917 27.9492C7.73677 28.0005 8.04654 28.0005 8.66608 28.0005C9.28561 28.0005 9.59657 28.0005 9.85417 27.9492C10.912 27.7388 11.7388 26.9114 11.9492 25.8536C12 25.5982 12 25.2917 12 24.683V7.31702C12 6.70833 12 6.40116 11.9492 6.14583C11.7388 5.08799 10.9114 4.26166 9.85358 4.05124C9.59598 4 9.28621 4 8.66667 4C8.04713 4 7.73677 4 7.47917 4.05124C6.42133 4.26166 5.59499 5.08799 5.38458 6.14583C5.33334 6.40343 5.33334 6.71379 5.33334 7.33333Z" stroke="white" stroke-width="2" stroke-linecap="round" stroke-linejoin="round"/>
</svg>
